inDegrees=yes
name=ik_lifting_orientations
DataType=double
version=3
OpenSimVersion=4.5-2024-01-10-34fd6af
endheader
time	pelvis_tilt	pelvis_list	pelvis_rotation	pelvis_tx	pelvis_ty	pelvis_tz	hip_flexion_r	hip_adduction_r	hip_rotation_r	knee_angle_r	knee_angle_r_beta	ankle_angle_r	subtalar_angle_r	mtp_angle_r	hip_flexion_l	hip_adduction_l	hip_rotation_l	knee_angle_l	knee_angle_l_beta	ankle_angle_l	subtalar_angle_l	mtp_angle_l	lumbar_extension	lumbar_bending	lumbar_rotation	arm_flex_r	arm_add_r	arm_rot_r	elbow_flex_r	pro_sup_r	wrist_flex_r	wrist_dev_r	arm_flex_l	arm_add_l	arm_rot_l	elbow_flex_l	pro_sup_l	wrist_flex_l	wrist_dev_l
1.22	0.003030881877991136	-0.004277692428943088	-87.68321060201525	0	0.9399999999999999	0	44.75545063561388	-10.00135930068109	0	59.10080219472043	1.031503588867762	-5.000081592374459	0	0	44.75545063561388	-10.00135930068109	0	59.10080219472043	1.031503588867762	-5.000081592374459	0	0	-0.01099256016838435	-0.006303298091372493	0.01556900628341117	-5.989302055102517	24.26494006877903	1.267777407881242	20.81769969657509	45.02068281855809	0	0	0	-13.03668681128813	0	74.85360442864096	45.02068281855809	0	0
1.23	-0.004503544702518288	-0.006427334760843466	-87.65852655706176	0	0.9399999999999999	0	44.75691184350345	-10.00133953828943	0	59.10610959345797	1.031596220450449	-5.000080164257942	0	0	44.75691184350345	-10.00133953828943	0	59.10610959345797	1.031596220450449	-5.000080164257942	0	0	0.02878886097774222	-0.006623467292929631	-0.02888711723095847	-6.505371676160363	25.18874057641449	2.091215562316009	22.541302931599	45.02042737895204	0	0	0	-13.04379160926965	0	74.85448020195432	45.02042737895204	0	0
1.24	-0.0005676982650747323	-0.008581037096670454	-87.6831584259248	0	0.9399999999999999	0	44.75697342052429	-10.00133835064636	0	59.10628714246624	1.031599319265227	-5.000080071342487	0	0	44.75697342052429	-10.00133835064636	0	59.10628714246624	1.031599319265227	-5.000080071342487	0	0	-0.01244331599851163	0.004429526444662065	0.01766938598922869	-6.594993472762141	25.71396354770398	2.188709604947567	22.81209412969449	45.02041305746283	0	0	0	-13.04404512391648	0	74.85451710789691	45.02041305746283	0	0
1.25	0.007030356132723416	-0.006443454485741778	-87.68966834158707	0	0.9399999999999999	0	44.75705614198073	-10.00133675492568	0	59.10652548946236	1.031603479205071	-5.000079946520508	0	0	44.75705614198073	-10.00133675492568	0	59.10652548946236	1.031603479205071	-5.000079946520508	0	0	-0.01878444028441079	-0.0122535498958862	0.02812507772157789	-6.939069821286577	26.78371196001659	2.478725373712962	23.43080767507023	45.02039381382102	0	0	0	-13.04438555426951	0	74.8545666866726	45.02039381382102	0	0
1.26	0.002569482869686634	0.005424563344244748	-87.66198867007044	0	0.9399999999999999	0	44.75719629262154	-10.00133405189946	0	59.10692904239128	1.031610522532387	-5.000079735145808	0	0	44.75719629262154	-10.00133405189946	0	59.10692904239128	1.031610522532387	-5.000079735145808	0	0	0.005761973440230377	0.0002933765572958663	-0.008519155711612485	-7.088198139994522	26.59428024537731	3.058832923449384	24.5763380776065	45.02036121117693	0	0	0	-13.04496214353115	0	74.85465068540108	45.02036121117693	0	0
1.27	-0.009190705509174031	0.003486798089678991	-87.67439656951002	0	0.9399999999999999	0	44.7572904681637	-10.00133223880979	0	59.10720036753459	1.031615258049481	-5.000079593452257	0	0	44.7572904681637	-10.00133223880979	0	59.10720036753459	1.031615258049481	-5.000079593452257	0	0	0.01021292401398749	0.0205302482585623	-0.01015690169029583	-6.607142755126758	25.49501742532318	2.311638973245426	24.49144455216771	45.02033933257849	0	0	0	-13.04534980688514	0	74.8547071291384	45.02033933257849	0	0
1.28	-0.0002923663246776024	-0.01421865457335688	-87.687715996462	0	0.9399999999999999	0	44.75736733862841	-10.00133076123545	0	59.10742197979989	1.031619125913173	-5.000079478038611	0	0	44.75736733862841	-10.00133076123545	0	59.10742197979989	1.031619125913173	-5.000079478038611	0	0	-0.02633384842763605	0.003891966559352506	0.02721096664012873	-6.462741422841431	24.80888591521365	2.642269260816813	25.25727339337049	45.02032149581817	0	0	0	-13.04566642050949	0	74.85475320114715	45.02032149581817	0	0
1.29	0.004120607713020186	-0.007427862911933093	-87.67932847347707	0	0.9399999999999999	0	44.75743393311662	-10.0013294826152	0	59.10761403543664	1.031622477916382	-5.00007937820457	0	0	44.75743393311662	-10.0013294826152	0	59.10761403543664	1.031622477916382	-5.00007937820457	0	0	-0.01951826434244162	-0.004658091717770077	0.01834837573397031	-6.190461106853122	23.57216570124583	2.851631597954993	25.7199478035445	45.02030605634569	0	0	0	-13.04594080621252	0	74.85479311429056	45.02030605634569	0	0
1.3	-0.003904366473258026	0.01008286517914681	-87.66377085057357	0	0.9399999999999999	0	44.75750681232166	-10.00132808398108	0	59.10782418560845	1.031626145728803	-5.000079269028252	0	0	44.75750681232166	-10.00132808398108	0	59.10782418560845	1.031626145728803	-5.000079269028252	0	0	0.02142797177862959	0.01044770055673455	-0.02725704573876356	-5.902526104561641	22.50531726392279	2.611169665041401	25.11240864647606	45.02028916487539	0	0	0	-13.04624108451933	0	74.85483679415429	45.02028916487539	0	0
1.31	0.006514092257261528	-0.01859622221359482	-87.68495162630164	0	0.9399999999999999	0	44.75757554811517	-10.00132676620522	0	59.10802245294253	1.031629606146582	-5.000079166200406	0	0	44.75757554811517	-10.00132676620522	0	59.10802245294253	1.031629606146582	-5.000079166200406	0	0	-0.03025813004533885	-0.001648653700274557	0.02696837532256307	-5.736045401405567	21.81523953834514	2.900903953042226	25.85916048697137	45.02027324581343	0	0	0	-13.04652438393036	0	74.85487799068123	45.02027324581343	0	0
1.32	-0.002127447665632054	0.003451185633254834	-87.67215160372803	0	0.9399999999999999	0	44.75765225591032	-10.0013252958916	0	59.10824363261927	1.03163346646018	-5.000079051494456	0	0	44.75765225591032	-10.0013252958916	0	59.10824363261927	1.03163346646018	-5.000079051494456	0	0	0.007794876922287459	0.00409280302703439	-0.009281708791769299	-5.607148288563374	21.28894034168706	2.804095212706617	25.56045262911384	45.0202554818702	0	0	0	-13.0468404878819	0	74.85492396519594	45.0202554818702	0	0
1.33	-0.02148383179338359	-0.00656961171349332	-87.68761954537908	0	0.9399999999999999	0	44.75775289076416	-10.00132336748585	0	59.10853367786822	1.031638528704754	-5.000078901090943	0	0	44.75775289076416	-10.00132336748585	0	59.10853367786822	1.031638528704754	-5.000078901090943	0	0	-0.01023959647844663	0.02148532200606185	0.005746008084377452	-5.488678353857409	20.59021809387924	3.142245672671845	26.3306171258926	45.02023217974966	0	0	0	-13.04725511478454	0	74.85498428029886	45.02023217974966	0	0
1.34	-0.001917321855782092	0.01914397396607526	-87.66096477517466	0	0.9399999999999999	0	44.75781917268846	-10.00132210001951	0	59.10872490996371	1.031641866334456	-5.00007880229729	0	0	44.75781917268846	-10.00132210001951	0	59.10872490996371	1.031641866334456	-5.00007880229729	0	0	0.02668788101606408	0.006955006267408724	-0.03014978025320999	-5.176393046419752	19.52822838391737	2.888205857798109	25.70857759348101	45.02021685689841	0	0	0	-13.04752843690083	0	74.85502400610991	45.02021685689841	0	0
1.35	0.007996225486415392	-0.01742213440254342	-87.68354858567045	0	0.9399999999999999	0	44.75788546204738	-10.00132083340242	0	59.10891619615155	1.031645204908247	-5.000078703599583	0	0	44.75788546204738	-10.00132083340242	0	59.10891619615155	1.031645204908247	-5.000078703599583	0	0	-0.0290642696408298	-0.005379731975179733	0.02241652801708352	-5.004367858148345	18.8444739397435	3.155983055124065	26.43088917417613	45.02020154105961	0	0	0	-13.04780184728756	0	74.85506373637726	45.02020154105961	0	0
1.36	-0.001342486734623398	0.003418191748935187	-87.67290418767907	0	0.9399999999999999	0	44.75795967946349	-10.00131941553771	0	59.10913027713605	1.031648941326292	-5.000078593138648	0	0	44.75795967946349	-10.00131941553771	0	59.10913027713605	1.031648941326292	-5.000078593138648	0	0	0.007625839197231889	0.002684783870313452	-0.007952402275721261	-4.876675586367101	18.32533590020946	3.066387339681308	26.13505314044765	45.02018439439125	0	0	0	-13.04810790251261	0	74.8551082182945	45.02018439439125	0	0
1.37	-0.001466209711028344	0.01072648409442148	-87.66871423532743	0	0.9399999999999999	0	44.75802464415747	-10.0013181759454	0	59.10931775510258	1.031652213434083	-5.000078496605123	0	0	44.75802464415747	-10.0013181759454	0	59.10931775510258	1.031652213434083	-5.000078496605123	0	0	0.01257986907651553	0.004506672771479556	-0.01338032369628749	-4.718565278507219	17.80079191562742	2.952988303006264	25.83388818788563	45.02016939915978	0	0	0	-13.04837591557608	0	74.85514715462962	45.02016939915978	0	0
1.38	0.003348861511918173	-0.01664457284157843	-87.68814204544852	0	0.9399999999999999	0	44.75810140315775	-10.00131671239547	0	59.10953927899892	1.031656079755446	-5.000078382667806	0	0	44.75810140315775	-10.00131671239547	0	59.10953927899892	1.031656079755446	-5.000078382667806	0	0	-0.02877502873309967	-0.00467224920682111	0.02354472443467263	-4.715642276942225	17.63215192303935	3.342799819538204	26.86047845819669	45.02015169080985	0	0	0	-13.04869262766124	0	74.85519315983643	45.02015169080985	0	0
1.39	-0.004213663968865343	-0.02280248943268889	-87.69030012175429	0	0.9399999999999999	0	44.75827137616811	-10.00131468774354	0	59.11004588155583	1.031664921638063	-5.000078259167459	0	0	44.75827137616811	-10.00131468774354	0	59.11004588155583	1.031664921638063	-5.000078259167459	0	0	-0.01477580623018949	-0.01358640082202637	0.01640658427832389	-4.744483666632688	17.57517029876004	3.356922556367515	26.78024038214886	45.02012323277075	0	0	0	-13.04945213556561	0	74.855295032922	45.02012323277075	0	0
1.4	0.007251560638181743	0.0008648999429112158	-87.67892667106018	0	0.9399999999999999	0	44.75869875876714	-10.00130750759184	0	59.11129516635619	1.031686725771125	-5.00007772687139	0	0	44.75869875876714	-10.00130750759184	0	59.11129516635619	1.031686725771125	-5.00007772687139	0	0	0.008939459218463491	-0.003831139277002356	-0.003946423699509627	-4.735538351468422	17.54517427646989	3.365658743872711	26.76663976712932	45.02003324035613	0	0	0	-13.05126400939108	0	74.855551183347	45.02003324035613	0	0
1.41	-0.01765320011859289	-0.005002542491846437	-87.67996583742928	0	0.9399999999999999	0	44.75988074466356	-10.00128294552148	0	59.11467851133602	1.031745776280754	-5.000075762716745	0	0	44.75988074466356	-10.00128294552148	0	59.11467851133602	1.031745776280754	-5.000075762716745	0	0	0.01461653121980548	0.01829490045916634	-0.012394729546766	-4.766199684252233	17.55200086183149	3.378461966000828	26.79285232993815	45.01974227193077	0	0	0	-13.05602701332585	0	74.85625960123319	45.01974227193077	0	0
1.42	-0.001829494719376346	0.002810159310767137	-87.67356967534788	0	0.9399999999999999	0	44.75995763591951	-10.0012815067079	0	59.11490067358296	1.031749653743436	-5.000075651616904	0	0	44.75995763591951	-10.0012815067079	0	59.11490067358296	1.031749653743436	-5.000075651616904	0	0	0.008847638513507177	0.003794569459208297	-0.009470665421582605	-4.569406543311415	17.03021611735653	3.243395719825901	26.45474089463212	45.01972476552637	0	0	0	-13.05634535540011	0	74.85630568571514	45.01972476552637	0	0
1.43	-0.002800602136395448	-0.001824583087721921	-87.67738070128955	0	0.9399999999999999	0	44.76028964927073	-10.00127643553428	0	59.11587446800768	1.031766649662385	-5.000075291825554	0	0	44.76028964927073	-10.00127643553428	0	59.11587446800768	1.031766649662385	-5.000075291825554	0	0	0.008403971352900306	0.006399905448215139	-0.005656884507371177	-4.577350207472808	17.02544045931994	3.248577773032968	26.46632126577525	45.01965932061718	0	0	0	-13.05777506199253	0	74.85650467705658	45.01965932061718	0	0
1.44	-0.006051144820254244	0.01178478193989341	-87.67746502155843	0	0.9399999999999999	0	44.76036684137267	-10.00127521468805	0	59.1161024593811	1.031770628862518	-5.000075203012134	0	0	44.76036684137267	-10.00127521468805	0	59.1161024593811	1.031770628862518	-5.000075203012134	0	0	0.01392059084658671	3.601068698529064e-05	-0.01038331421666814	-4.555909386893214	17.0352489646389	3.245838651313372	26.44523884212356	45.01964378605967	0	0	0	-13.05810767543351	0	74.85655094193572	45.01964378605967	0	0
